<svg width="177" height="172" viewBox="0 0 177 172" fill="none" xmlns="http://www.w3.org/2000/svg">
<g clip-path="url(#clip0_24_63)">
<path d="M31.5281 -0.000197591H146.025C150.129 0.00234603 154.192 0.817262 157.978 2.39726C161.764 3.97726 165.197 6.29088 168.079 9.20387C170.96 12.1169 173.233 15.5712 174.764 19.3665C176.296 23.1617 177.056 27.2223 177 31.3126V140.687C176.994 144.807 176.174 148.885 174.586 152.689C172.998 156.492 170.674 159.947 167.746 162.855C164.818 165.763 161.344 168.067 157.522 169.636C153.7 171.205 149.605 172.008 145.472 172H31.5281C27.3947 172.008 23.3 171.205 19.4781 169.636C15.6562 168.067 12.182 165.763 9.25405 162.855C6.3261 159.947 4.00179 156.492 2.41394 152.689C0.826087 148.885 0.00582122 144.807 1.68062e-05 140.687V31.3126C-0.0404464 27.18 0.748242 23.0811 2.31974 19.2566C3.89124 15.4321 6.21384 11.9592 9.15108 9.04204C12.0883 6.12486 15.5809 3.82221 19.4237 2.26941C23.2665 0.716597 27.3819 -0.0550515 31.5281 -0.000197591Z" fill="black"/>
<path d="M71.3532 102.834H43.697L38.1657 119.924C38.1657 120.475 37.6126 121.026 36.5064 121.026H22.6782C22.1251 121.577 21.572 121.026 22.1251 119.924L45.9095 52.1159C45.9095 51.5646 46.4626 50.4621 46.4626 49.9108C46.9189 48.2984 47.1058 46.6221 47.0157 44.9492L47.5689 43.8467H66.3751C66.9282 43.8467 67.4814 43.8467 67.4814 44.398L94.5845 119.924C94.5845 120.475 94.5845 121.026 94.0314 121.026H78.5439C78.2569 121.007 77.9868 120.884 77.7835 120.681C77.5801 120.479 77.4573 120.21 77.4376 119.924L71.3532 102.834ZM48.122 88.5005H66.9282C66.3751 86.8467 65.822 85.1928 65.2689 82.9877C64.7784 80.8851 64.0356 78.8491 63.0564 76.9236C62.5032 74.7185 61.397 72.5133 60.8439 70.3082C60.3577 68.0273 59.6155 65.8083 58.6314 63.6928C57.9005 61.9131 57.3448 60.0668 56.972 58.18C56.3824 61.392 55.4554 64.5332 54.2064 67.5518C53.1001 70.8595 51.9939 74.7185 50.8876 78.5774C50.2239 81.9513 49.2993 85.2689 48.122 88.5005Z" fill="white"/>
<path d="M138.281 96.1658H115.05C115.536 98.4467 116.278 100.666 117.262 102.781C118.571 104.816 120.515 106.365 122.794 107.191C125.798 108.32 128.986 108.881 132.197 108.845C134.81 108.749 137.405 108.379 139.94 107.743L146.578 106.089C147.131 105.538 147.131 106.089 147.131 106.64V118.768L146.578 119.32C144.265 120.305 141.855 121.044 139.387 121.525C135.918 122.164 132.405 122.533 128.878 122.627C123.948 122.673 119.058 121.736 114.497 119.871C110.894 118.164 107.69 115.723 105.094 112.704C102.9 109.892 101.216 106.721 100.115 103.332C99.0258 99.9467 98.4661 96.4138 98.4561 92.8581C98.4643 88.9409 99.0229 85.0441 100.115 81.2812C101.283 77.6417 103.163 74.269 105.647 71.3581C108.075 68.3924 111.087 65.9534 114.497 64.1915C118.339 62.566 122.495 61.8128 126.665 61.9863C130.648 61.9152 134.603 62.666 138.281 64.1915C141.331 65.5347 143.994 67.6199 146.025 70.2556C147.922 72.7659 149.415 75.5558 150.45 78.5248C151.533 81.341 152.095 84.3294 152.109 87.3453V92.3068C152.246 93.4394 152.054 94.5873 151.556 95.6145C151.536 95.9005 151.414 96.1697 151.21 96.3724C151.007 96.5751 150.737 96.6975 150.45 96.7171H143.812C142.006 96.2614 140.142 96.0756 138.281 96.1658ZM115.05 85.1402H134.962C135.263 85.1773 135.567 85.1471 135.855 85.0517C136.142 84.9563 136.404 84.7982 136.622 84.5889V84.0376C136.707 83.0849 136.515 82.1278 136.069 81.2812C135.618 79.2047 134.402 77.3725 132.66 76.1473C130.919 74.9222 128.779 74.3935 126.665 74.6658C124.684 74.7216 122.745 75.2515 121.012 76.211C119.279 77.1705 117.804 78.5313 116.709 80.1786C115.669 81.6293 115.091 83.3579 115.05 85.1402Z" fill="white"/>
</g>
<defs>
<clipPath id="clip0_24_63">
<rect width="177" height="172" fill="white"/>
</clipPath>
</defs>
</svg>
