<svg width="177" height="172" viewBox="0 0 177 172" fill="none" xmlns="http://www.w3.org/2000/svg">
<g clip-path="url(#clip0_24_67)">
<path d="M31.5281 -0.000197591H146.025C150.129 0.00234603 154.192 0.817262 157.978 2.39726C161.764 3.97726 165.197 6.29088 168.079 9.20387C170.96 12.1169 173.233 15.5712 174.764 19.3665C176.296 23.1617 177.056 27.2223 177 31.3126V140.687C176.994 144.807 176.174 148.885 174.586 152.689C172.998 156.492 170.674 159.947 167.746 162.855C164.818 165.763 161.344 168.067 157.522 169.636C153.7 171.205 149.605 172.008 145.472 172H31.5281C27.3947 172.008 23.3 171.205 19.4781 169.636C15.6562 168.067 12.182 165.763 9.25405 162.855C6.3261 159.947 4.00179 156.492 2.41394 152.689C0.826087 148.885 0.00582122 144.807 1.68062e-05 140.687V31.3126C-0.0404464 27.18 0.748242 23.0811 2.31974 19.2566C3.89124 15.4321 6.21384 11.9592 9.15108 9.04204C12.0883 6.12486 15.5809 3.82221 19.4237 2.26941C23.2665 0.716597 27.3819 -0.0550515 31.5281 -0.000197591Z" fill="black"/>
<path d="M39.8252 120.475V44.9494C39.8252 44.3981 39.8252 43.8468 40.3783 43.8468H63.6096C68.6847 43.5967 73.7596 44.346 78.5439 46.052C82.1956 47.2157 85.5796 49.0895 88.5002 51.5648C90.9579 53.8602 92.8508 56.6901 94.0315 59.834C95.1171 62.8407 95.6783 66.0104 95.6908 69.2058C95.8264 74.6801 94.2827 80.0652 91.2658 84.6417C88.31 88.6188 84.2819 91.6775 79.6502 93.4622C74.3051 95.2701 68.7009 96.201 63.0564 96.2186H55.8658V119.924C55.8078 120.342 55.6135 120.729 55.3127 121.026H40.9314C40.3783 121.578 39.8252 121.026 39.8252 120.475ZM55.8658 58.1802V82.9879H62.5033C65.2985 82.8921 68.0775 82.5228 70.8002 81.8853C73.1254 81.1374 75.22 79.809 76.8846 78.0263C78.5915 75.8335 79.384 73.069 79.0971 70.3084C79.0727 68.004 78.5042 65.7377 77.4377 63.693C76.0505 61.9435 74.3655 60.4506 72.4596 59.2827C69.6482 58.1539 66.6402 57.5918 63.6096 57.6289H58.6314C57.69 57.6963 56.7609 57.8815 55.8658 58.1802Z" fill="white"/>
<path d="M141.6 77.9776C139.343 76.7305 136.923 75.8028 134.409 75.2212C131.687 74.5838 128.908 74.2145 126.113 74.1187C124.616 74.0294 123.116 74.2163 121.688 74.67C120.581 74.67 120.028 75.2212 119.475 76.3238C118.922 76.8751 118.922 77.4264 118.922 78.5289C118.885 78.8283 118.915 79.1321 119.011 79.4182C119.106 79.7044 119.265 79.9656 119.475 80.1828C120.283 81.0494 121.215 81.7924 122.241 82.3879C123.789 83.3498 125.465 84.092 127.219 84.593C131.162 85.869 134.891 87.7273 138.281 90.1059C140.577 91.8422 142.624 93.8823 144.366 96.17C145.498 98.5843 146.065 101.223 146.025 103.888C145.887 107.364 144.94 110.761 143.259 113.811C141.013 116.595 138.181 118.853 134.963 120.426C130.733 122.05 126.217 122.8 121.688 122.631C118.344 122.537 115.014 122.168 111.731 121.529C109.083 121.051 106.489 120.312 103.988 119.324C103.434 119.324 102.881 118.221 102.881 117.67V104.99L103.434 104.439H103.988C106.976 106.055 110.128 107.348 113.391 108.298C116.294 108.971 119.26 109.34 122.241 109.401C124.324 109.464 126.397 109.089 128.325 108.298C128.97 108.012 129.52 107.549 129.911 106.963C130.303 106.378 130.52 105.694 130.538 104.99C130.548 104.422 130.398 103.862 130.105 103.375C129.811 102.887 129.386 102.492 128.878 102.234C126.703 100.706 124.266 99.5847 121.688 98.9264C117.918 97.6453 114.372 95.7853 111.178 93.4135C108.915 91.8156 107.028 89.7464 105.647 87.3494C104.515 84.9351 103.948 82.2962 103.988 79.6315C104.056 76.4902 105.015 73.4323 106.753 70.811C108.497 67.7858 111.231 65.4501 114.497 64.1956C118.649 62.2661 123.193 61.3226 127.772 61.4392C130.917 61.3479 134.063 61.5324 137.175 61.9905C139.445 62.2804 141.673 62.8355 143.813 63.6443L144.366 64.1956V77.4264L143.813 77.9776H141.6Z" fill="white"/>
</g>
<defs>
<clipPath id="clip0_24_67">
<rect width="177" height="172" fill="white"/>
</clipPath>
</defs>
</svg>
