<svg width="179" height="149" viewBox="0 0 179 149" fill="none" xmlns="http://www.w3.org/2000/svg">
<rect width="179" height="149" fill="black"/>
<path d="M70.016 40.492C70.272 40.556 70.592 40.716 70.976 40.972C71.168 41.1 71.296 41.26 71.36 41.452C71.488 41.58 71.648 41.708 71.84 41.836L71.648 43.084C71.392 44.044 71.072 45.004 70.688 45.964C70.304 46.924 70.176 47.916 70.304 48.94C70.368 49.068 70.432 49.228 70.496 49.42C70.56 49.548 70.624 49.612 70.688 49.612C71.008 50.124 71.168 50.636 71.168 51.148C71.168 51.596 71.104 52.076 70.976 52.588C70.848 53.036 70.656 53.516 70.4 54.028C70.208 54.476 70.08 54.956 70.016 55.468C69.44 57.388 68.864 59.34 68.288 61.324C67.712 63.308 67.2 65.26 66.752 67.18C65.792 70.572 64.896 73.996 64.064 77.452C63.296 80.908 62.56 84.332 61.856 87.724C61.792 87.852 61.792 87.98 61.856 88.108C61.92 88.172 61.888 88.236 61.76 88.3C61.824 88.428 61.856 88.588 61.856 88.78C61.856 88.972 61.888 89.132 61.952 89.26H61.856C61.984 89.388 62.016 89.516 61.952 89.644C62.016 90.22 62.144 90.796 62.336 91.372C62.528 91.884 62.88 92.236 63.392 92.428C63.84 92.684 64.256 92.908 64.64 93.1C65.088 93.228 65.536 93.228 65.984 93.1H66.08C66.208 93.228 66.304 93.26 66.368 93.196C66.432 93.068 66.528 93.004 66.656 93.004C66.976 92.876 67.264 92.716 67.52 92.524C67.84 92.332 68.16 92.14 68.48 91.948C68.864 91.756 69.184 91.468 69.44 91.084C69.696 90.636 69.952 90.22 70.208 89.836C70.528 89.452 70.848 89.132 71.168 88.876C71.488 88.556 71.936 88.364 72.512 88.3C72.704 88.236 72.896 88.172 73.088 88.108C73.344 88.044 73.536 87.884 73.664 87.628C73.664 87.116 73.76 86.636 73.952 86.188C74.208 85.74 74.304 85.26 74.24 84.748C74.944 80.524 75.68 76.3 76.448 72.076C77.216 67.852 78.048 63.628 78.944 59.404C79.52 56.972 80.064 54.508 80.576 52.012C81.152 49.452 81.792 47.02 82.496 44.716C82.688 44.076 82.944 43.468 83.264 42.892C83.584 42.316 84.096 41.932 84.8 41.74C84.992 41.676 85.184 41.676 85.376 41.74C85.632 41.74 85.824 41.644 85.952 41.452C86.208 41.708 86.432 41.708 86.624 41.452C86.88 41.196 87.168 41.004 87.488 40.876C88.64 40.556 90.016 40.492 91.616 40.684L91.712 40.588C92.992 40.652 94.24 40.684 95.456 40.684C96.736 40.684 97.984 40.748 99.2 40.876C99.584 40.876 99.936 40.876 100.256 40.876C100.64 40.812 100.992 40.844 101.312 40.972C101.632 41.164 101.824 41.356 101.888 41.548C102.016 41.74 102.144 41.964 102.272 42.22C102.208 42.476 102.176 42.732 102.176 42.988C102.176 43.18 102.08 43.34 101.888 43.468C101.376 45.132 100.864 46.796 100.352 48.46C99.84 50.06 99.328 51.692 98.816 53.356L95.264 66.412C94.496 69.484 93.728 72.524 92.96 75.532C92.256 78.54 91.552 81.58 90.848 84.652C90.528 85.932 90.272 87.18 90.08 88.396C89.888 89.612 89.664 90.796 89.408 91.948L89.504 92.044C89.376 92.812 89.056 93.548 88.544 94.252C88.096 94.956 87.744 95.66 87.488 96.364C87.104 97.964 86.752 99.564 86.432 101.164C86.176 102.764 85.888 104.396 85.568 106.06C85.376 106.124 85.28 106.252 85.28 106.444C85.344 106.636 85.28 106.668 85.088 106.54C84.384 106.988 83.616 107.18 82.784 107.116C82.016 106.988 81.216 106.956 80.384 107.02C80.128 106.956 79.872 106.956 79.616 107.02C79.36 107.02 79.104 106.956 78.848 106.828C78.784 106.764 78.72 106.764 78.656 106.828C78.592 106.828 78.528 106.796 78.464 106.732L78.56 106.636C78.432 106.444 78.272 106.284 78.08 106.156C77.888 105.964 77.888 105.74 78.08 105.484C77.952 104.972 77.984 104.428 78.176 103.852C78.368 103.276 78.208 102.828 77.696 102.508C77.312 102.636 76.992 102.892 76.736 103.276C76.544 103.66 76.384 104.012 76.256 104.332L76.352 104.524C76.224 104.78 76.096 105.068 75.968 105.388C75.904 105.644 75.808 105.836 75.68 105.964L75.776 106.06H75.68V106.252C75.552 106.124 75.488 106.156 75.488 106.348C75.552 106.54 75.488 106.572 75.296 106.444L75.392 106.54C75.328 106.54 75.296 106.572 75.296 106.636C75.168 106.572 75.072 106.572 75.008 106.636C75.008 106.7 74.944 106.732 74.816 106.732C74.432 106.732 74.016 106.764 73.568 106.828C73.12 106.828 72.736 106.764 72.416 106.636V106.732C72.16 106.604 72.064 106.508 72.128 106.444C71.68 106.06 71.488 105.644 71.552 105.196L71.36 105.1C71.488 104.972 71.52 104.844 71.456 104.716C71.456 104.524 71.52 104.364 71.648 104.236C71.712 103.852 71.584 103.532 71.264 103.276C71.008 103.148 70.784 103.148 70.592 103.276C70.4 103.404 70.208 103.532 70.016 103.66C69.248 104.172 68.384 104.652 67.424 105.1C66.528 105.548 65.632 105.9 64.736 106.156C64.48 106.412 64.224 106.508 63.968 106.444C63.392 106.764 62.816 106.956 62.24 107.02C61.664 107.02 61.056 107.084 60.416 107.212C60.096 107.34 59.744 107.404 59.36 107.404C58.976 107.34 58.624 107.372 58.304 107.5C56.832 107.436 55.456 107.244 54.176 106.924C52.896 106.54 51.712 105.932 50.624 105.1C49.024 104.076 47.904 102.668 47.264 100.876C46.624 99.084 46.144 97.356 45.824 95.692C45.376 92.684 45.376 89.644 45.824 86.572C46.272 83.5 46.688 80.428 47.072 77.356C47.904 71.532 48.896 65.772 50.048 60.076C51.2 54.38 52.48 48.716 53.888 43.084C54.208 42.636 54.496 42.22 54.752 41.836C55.072 41.388 55.488 41.1 56 40.972C56.704 40.844 57.472 40.876 58.304 41.068C59.136 41.196 59.84 41.004 60.416 40.492C61.12 40.3 61.76 40.268 62.336 40.396C62.976 40.46 63.616 40.46 64.256 40.396C65.28 40.46 66.24 40.524 67.136 40.588C68.096 40.588 69.056 40.556 70.016 40.492ZM61.952 89.644V89.452L61.856 89.356L61.952 89.644ZM73.088 92.716C72.96 92.396 72.8 92.204 72.608 92.14C72.224 92.204 71.904 92.396 71.648 92.716C71.392 92.972 71.168 93.26 70.976 93.58C70.976 93.708 71.04 93.804 71.168 93.868C71.296 93.932 71.392 93.964 71.456 93.964C71.776 93.836 72.096 93.676 72.416 93.484C72.736 93.292 72.96 93.036 73.088 92.716ZM131.941 40.396C132.709 40.524 133.125 40.94 133.189 41.644C133.381 41.9 133.413 42.188 133.285 42.508C133.221 42.828 133.125 43.116 132.997 43.372C132.485 45.164 132.005 46.924 131.557 48.652C131.173 50.38 130.757 52.14 130.309 53.932C130.181 54.444 130.181 54.86 130.309 55.18C130.437 55.436 130.565 55.82 130.693 56.332L130.789 57.292C130.789 57.484 130.757 57.708 130.693 57.964C130.629 58.156 130.629 58.316 130.693 58.444L130.597 58.156C130.341 59.244 130.021 60.364 129.637 61.516C129.317 62.604 129.061 63.692 128.869 64.78L128.773 64.876C126.981 71.468 125.413 78.124 124.069 84.844C122.725 91.564 121.509 98.38 120.421 105.292C120.293 105.612 120.069 105.932 119.749 106.252C119.429 106.508 119.077 106.668 118.693 106.732C118.181 106.924 117.669 106.988 117.157 106.924C116.709 106.796 116.229 106.764 115.717 106.828C114.629 107.404 113.413 107.596 112.069 107.404C111.493 107.148 111.077 106.828 110.821 106.444C110.629 105.932 110.565 105.388 110.629 104.812C110.757 104.172 110.565 103.756 110.053 103.564C109.733 103.692 109.477 103.884 109.285 104.14C109.157 104.396 109.029 104.684 108.901 105.004C108.773 105.26 108.613 105.548 108.421 105.868C108.293 106.124 108.069 106.348 107.749 106.54C107.557 106.668 107.301 106.796 106.98 106.924C106.661 107.052 106.373 107.052 106.117 106.924C105.925 106.924 105.765 106.828 105.637 106.636C105.509 106.444 105.381 106.284 105.253 106.156C105.125 105.452 105.157 104.748 105.349 104.044C105.541 103.276 105.637 102.54 105.637 101.836C105.829 99.788 106.085 97.708 106.405 95.596C106.725 93.484 106.949 91.404 107.077 89.356C107.013 89.164 106.949 89.004 106.885 88.876C106.821 88.684 106.853 88.492 106.98 88.3C106.917 87.212 106.981 86.092 107.173 84.94C107.365 83.724 107.525 82.54 107.653 81.388C107.845 79.596 108.069 77.74 108.325 75.82C108.645 73.836 108.933 72.012 109.189 70.348C109.509 68.812 109.765 67.308 109.957 65.836C110.213 64.3 110.501 62.732 110.821 61.132C111.013 59.66 111.237 58.188 111.493 56.716C111.813 55.18 112.133 53.676 112.453 52.204L112.357 52.012C112.357 52.012 112.389 52.012 112.453 52.012C112.517 52.012 112.549 51.948 112.549 51.82C112.677 51.372 112.773 50.924 112.837 50.476C112.901 49.964 113.029 49.516 113.221 49.132C113.349 47.98 113.541 46.86 113.797 45.772C114.053 44.684 114.309 43.564 114.565 42.412C114.693 41.9 114.981 41.516 115.429 41.26C115.877 40.94 116.325 40.716 116.773 40.588C116.837 40.716 116.933 40.716 117.061 40.588C117.637 40.78 118.181 40.812 118.693 40.684C119.205 40.556 119.717 40.716 120.229 41.164C120.485 41.548 120.709 41.804 120.901 41.932L120.997 41.836C120.997 41.964 121.029 42.028 121.093 42.028C121.157 42.028 121.253 42.092 121.381 42.22C121.509 42.092 121.605 42.06 121.669 42.124C121.797 42.124 121.893 42.028 121.957 41.836V41.932C122.213 41.996 122.405 41.932 122.533 41.74C122.661 41.484 122.885 41.324 123.205 41.26C123.717 41.26 124.069 41.356 124.261 41.548C124.389 41.676 124.453 41.836 124.453 42.028C124.517 42.156 124.613 42.284 124.741 42.412C124.485 42.86 124.453 43.308 124.645 43.756C124.837 44.076 125.093 44.14 125.413 43.948C125.797 43.564 125.989 43.212 125.989 42.892C126.309 42.38 126.533 41.868 126.661 41.356C126.789 40.844 127.205 40.524 127.909 40.396C128.485 40.268 129.061 40.236 129.637 40.3C130.277 40.364 130.885 40.396 131.461 40.396H131.941Z" fill="white"/>
</svg>
