<svg width="179" height="149" viewBox="0 0 179 149" fill="none" xmlns="http://www.w3.org/2000/svg">
<rect width="179" height="149" fill="black"/>
<path d="M55.516 40.492C55.772 40.556 56.092 40.716 56.476 40.972C56.668 41.1 56.796 41.26 56.86 41.452C56.988 41.58 57.148 41.708 57.34 41.836L57.148 43.084C56.892 44.044 56.572 45.004 56.188 45.964C55.804 46.924 55.676 47.916 55.804 48.94C55.868 49.068 55.932 49.228 55.996 49.42C56.06 49.548 56.124 49.612 56.188 49.612C56.508 50.124 56.668 50.636 56.668 51.148C56.668 51.596 56.604 52.076 56.476 52.588C56.348 53.036 56.156 53.516 55.9 54.028C55.708 54.476 55.58 54.956 55.516 55.468C54.94 57.388 54.364 59.34 53.788 61.324C53.212 63.308 52.7 65.26 52.252 67.18C51.292 70.572 50.396 73.996 49.564 77.452C48.796 80.908 48.06 84.332 47.356 87.724C47.292 87.852 47.292 87.98 47.356 88.108C47.42 88.172 47.388 88.236 47.26 88.3C47.324 88.428 47.356 88.588 47.356 88.78C47.356 88.972 47.388 89.132 47.452 89.26H47.356C47.484 89.388 47.516 89.516 47.452 89.644C47.516 90.22 47.644 90.796 47.836 91.372C48.028 91.884 48.38 92.236 48.892 92.428C49.34 92.684 49.756 92.908 50.14 93.1C50.588 93.228 51.036 93.228 51.484 93.1H51.58C51.708 93.228 51.804 93.26 51.868 93.196C51.932 93.068 52.028 93.004 52.156 93.004C52.476 92.876 52.764 92.716 53.02 92.524C53.34 92.332 53.66 92.14 53.98 91.948C54.364 91.756 54.684 91.468 54.94 91.084C55.196 90.636 55.452 90.22 55.708 89.836C56.028 89.452 56.348 89.132 56.668 88.876C56.988 88.556 57.436 88.364 58.012 88.3C58.204 88.236 58.396 88.172 58.588 88.108C58.844 88.044 59.036 87.884 59.164 87.628C59.164 87.116 59.26 86.636 59.452 86.188C59.708 85.74 59.804 85.26 59.74 84.748C60.444 80.524 61.18 76.3 61.948 72.076C62.716 67.852 63.548 63.628 64.444 59.404C65.02 56.972 65.564 54.508 66.076 52.012C66.652 49.452 67.292 47.02 67.996 44.716C68.188 44.076 68.444 43.468 68.764 42.892C69.084 42.316 69.596 41.932 70.3 41.74C70.492 41.676 70.684 41.676 70.876 41.74C71.132 41.74 71.324 41.644 71.452 41.452C71.708 41.708 71.932 41.708 72.124 41.452C72.38 41.196 72.668 41.004 72.988 40.876C74.14 40.556 75.516 40.492 77.116 40.684L77.212 40.588C78.492 40.652 79.74 40.684 80.956 40.684C82.236 40.684 83.484 40.748 84.7 40.876C85.084 40.876 85.436 40.876 85.756 40.876C86.14 40.812 86.492 40.844 86.812 40.972C87.132 41.164 87.324 41.356 87.388 41.548C87.516 41.74 87.644 41.964 87.772 42.22C87.708 42.476 87.676 42.732 87.676 42.988C87.676 43.18 87.58 43.34 87.388 43.468C86.876 45.132 86.364 46.796 85.852 48.46C85.34 50.06 84.828 51.692 84.316 53.356L80.764 66.412C79.996 69.484 79.228 72.524 78.46 75.532C77.756 78.54 77.052 81.58 76.348 84.652C76.028 85.932 75.772 87.18 75.58 88.396C75.388 89.612 75.164 90.796 74.908 91.948L75.004 92.044C74.876 92.812 74.556 93.548 74.044 94.252C73.596 94.956 73.244 95.66 72.988 96.364C72.604 97.964 72.252 99.564 71.932 101.164C71.676 102.764 71.388 104.396 71.068 106.06C70.876 106.124 70.78 106.252 70.78 106.444C70.844 106.636 70.78 106.668 70.588 106.54C69.884 106.988 69.116 107.18 68.284 107.116C67.516 106.988 66.716 106.956 65.884 107.02C65.628 106.956 65.372 106.956 65.116 107.02C64.86 107.02 64.604 106.956 64.348 106.828C64.284 106.764 64.22 106.764 64.156 106.828C64.092 106.828 64.028 106.796 63.964 106.732L64.06 106.636C63.932 106.444 63.772 106.284 63.58 106.156C63.388 105.964 63.388 105.74 63.58 105.484C63.452 104.972 63.484 104.428 63.676 103.852C63.868 103.276 63.708 102.828 63.196 102.508C62.812 102.636 62.492 102.892 62.236 103.276C62.044 103.66 61.884 104.012 61.756 104.332L61.852 104.524C61.724 104.78 61.596 105.068 61.468 105.388C61.404 105.644 61.308 105.836 61.18 105.964L61.276 106.06H61.18V106.252C61.052 106.124 60.988 106.156 60.988 106.348C61.052 106.54 60.988 106.572 60.796 106.444L60.892 106.54C60.828 106.54 60.796 106.572 60.796 106.636C60.668 106.572 60.572 106.572 60.508 106.636C60.508 106.7 60.444 106.732 60.316 106.732C59.932 106.732 59.516 106.764 59.068 106.828C58.62 106.828 58.236 106.764 57.916 106.636V106.732C57.66 106.604 57.564 106.508 57.628 106.444C57.18 106.06 56.988 105.644 57.052 105.196L56.86 105.1C56.988 104.972 57.02 104.844 56.956 104.716C56.956 104.524 57.02 104.364 57.148 104.236C57.212 103.852 57.084 103.532 56.764 103.276C56.508 103.148 56.284 103.148 56.092 103.276C55.9 103.404 55.708 103.532 55.516 103.66C54.748 104.172 53.884 104.652 52.924 105.1C52.028 105.548 51.132 105.9 50.236 106.156C49.98 106.412 49.724 106.508 49.468 106.444C48.892 106.764 48.316 106.956 47.74 107.02C47.164 107.02 46.556 107.084 45.916 107.212C45.596 107.34 45.244 107.404 44.86 107.404C44.476 107.34 44.124 107.372 43.804 107.5C42.332 107.436 40.956 107.244 39.676 106.924C38.396 106.54 37.212 105.932 36.124 105.1C34.524 104.076 33.404 102.668 32.764 100.876C32.124 99.084 31.644 97.356 31.324 95.692C30.876 92.684 30.876 89.644 31.324 86.572C31.772 83.5 32.188 80.428 32.572 77.356C33.404 71.532 34.396 65.772 35.548 60.076C36.7 54.38 37.98 48.716 39.388 43.084C39.708 42.636 39.996 42.22 40.252 41.836C40.572 41.388 40.988 41.1 41.5 40.972C42.204 40.844 42.972 40.876 43.804 41.068C44.636 41.196 45.34 41.004 45.916 40.492C46.62 40.3 47.26 40.268 47.836 40.396C48.476 40.46 49.116 40.46 49.756 40.396C50.78 40.46 51.74 40.524 52.636 40.588C53.596 40.588 54.556 40.556 55.516 40.492ZM47.452 89.644V89.452L47.356 89.356L47.452 89.644ZM58.588 92.716C58.46 92.396 58.3 92.204 58.108 92.14C57.724 92.204 57.404 92.396 57.148 92.716C56.892 92.972 56.668 93.26 56.476 93.58C56.476 93.708 56.54 93.804 56.668 93.868C56.796 93.932 56.892 93.964 56.956 93.964C57.276 93.836 57.596 93.676 57.916 93.484C58.236 93.292 58.46 93.036 58.588 92.716ZM141.249 41.068C141.377 41.324 141.473 41.548 141.537 41.74C141.601 41.868 141.761 41.996 142.017 42.124C142.529 42.252 142.913 42.156 143.169 41.836C143.425 41.516 143.745 41.26 144.129 41.068C144.065 40.94 144.097 40.908 144.225 40.972C144.353 40.972 144.449 40.908 144.513 40.78C144.961 40.652 145.377 40.62 145.76 40.684C146.209 40.748 146.689 40.844 147.201 40.972V40.876C147.329 41.004 147.457 41.164 147.585 41.356C147.713 41.484 147.841 41.676 147.969 41.932C147.905 42.7 147.553 43.34 146.913 43.852C146.337 44.3 145.889 44.844 145.569 45.484C143.521 47.98 141.441 50.604 139.329 53.356C137.217 56.044 135.169 58.732 133.185 61.42C131.713 63.532 130.241 65.58 128.769 67.564C127.297 69.548 125.857 71.628 124.449 73.804C124.321 74.572 124.321 75.276 124.449 75.916C124.641 76.492 124.833 77.132 125.025 77.836C125.601 80.012 126.177 82.252 126.753 84.556C127.393 86.86 128.065 89.132 128.769 91.372C129.473 93.548 130.177 95.724 130.881 97.9C131.585 100.012 132.321 102.188 133.089 104.428C133.025 104.62 133.089 104.844 133.281 105.1C133.473 105.356 133.473 105.644 133.281 105.964C133.217 106.092 133.153 106.252 133.089 106.444C133.025 106.636 132.929 106.7 132.801 106.636L132.705 106.828C132.577 106.828 132.449 106.86 132.321 106.924C132.193 106.988 132.033 107.02 131.841 107.02C130.817 107.084 129.857 107.116 128.961 107.116C128.065 107.052 127.137 107.02 126.177 107.02C125.665 107.084 125.185 106.956 124.737 106.636C124.289 106.252 123.905 105.804 123.585 105.292C123.393 104.972 123.201 104.556 123.009 104.044C122.817 103.468 122.529 103.02 122.145 102.7C122.081 102.7 121.889 102.764 121.569 102.892C121.441 103.02 121.409 103.212 121.473 103.468C121.537 103.724 121.505 103.916 121.377 104.044C121.441 104.492 121.505 104.908 121.569 105.292C121.697 105.676 121.793 106.06 121.857 106.444C121.793 106.636 121.761 106.796 121.761 106.924C121.761 107.052 121.697 107.18 121.569 107.308C121.377 107.372 121.153 107.404 120.897 107.404C120.641 107.34 120.417 107.276 120.225 107.212C119.969 106.956 119.713 106.796 119.457 106.732C118.561 105.26 117.825 103.724 117.249 102.124C116.737 100.46 116.129 98.892 115.425 97.42C115.169 96.716 114.913 96.076 114.656 95.5C114.465 94.86 114.209 94.188 113.889 93.484C113.697 93.356 113.569 93.196 113.505 93.004C113.505 92.748 113.377 92.652 113.121 92.716C113.057 92.524 112.929 92.46 112.737 92.524C112.609 92.524 112.481 92.556 112.353 92.62C111.137 94.412 109.953 96.268 108.801 98.188C107.713 100.108 106.625 101.964 105.537 103.756C105.537 103.884 105.473 103.98 105.345 104.044C105.281 104.044 105.249 104.108 105.249 104.236C105.057 104.556 104.833 104.876 104.577 105.196C104.385 105.452 104.161 105.804 103.905 106.252C103.777 106.252 103.585 106.348 103.329 106.54C103.073 106.668 102.849 106.764 102.657 106.828C102.209 107.084 101.665 107.18 101.025 107.116C100.449 107.052 99.9045 107.148 99.3925 107.404C98.2405 107.596 97.0885 107.564 95.9365 107.308C94.8485 106.988 93.7285 106.892 92.5765 107.02C92.3845 106.892 92.1605 106.86 91.9045 106.924C91.6485 106.988 91.4245 106.924 91.2325 106.732L91.1365 106.828C91.2005 106.764 91.2005 106.732 91.1365 106.732H91.0405C91.1685 106.732 91.1365 106.7 90.9445 106.636C90.8165 106.508 90.7525 106.38 90.7525 106.252C90.6245 105.484 90.7845 104.78 91.2325 104.14C91.6805 103.436 92.0645 102.732 92.3845 102.028C92.3845 101.9 92.4165 101.804 92.4805 101.74C92.6085 101.612 92.6405 101.484 92.5765 101.356C93.2805 100.204 93.9525 99.084 94.5925 97.996C95.2965 96.844 96.0005 95.628 96.7045 94.348C97.9845 92.172 99.2325 90.06 100.449 88.012C101.665 85.9 102.945 83.756 104.289 81.58C104.353 81.452 104.417 81.324 104.481 81.196C104.609 81.004 104.705 80.812 104.769 80.62C105.153 79.98 105.505 79.404 105.825 78.892C106.209 78.316 106.561 77.708 106.881 77.068C107.201 76.236 107.265 75.436 107.073 74.668C106.945 73.836 106.721 73.068 106.401 72.364C106.081 71.468 105.729 70.476 105.345 69.388C105.025 68.236 104.673 67.212 104.289 66.316C104.225 66.124 104.161 65.964 104.097 65.836C104.097 65.708 104.033 65.58 103.905 65.452C103.777 65.004 103.745 64.588 103.809 64.204C103.873 63.756 103.873 63.34 103.809 62.956C102.849 59.884 101.889 56.812 100.929 53.74C99.9685 50.604 99.0405 47.468 98.1445 44.332C98.1445 44.076 98.1445 43.788 98.1445 43.468C98.1445 43.084 98.2085 42.732 98.3365 42.412C98.6565 42.156 99.0405 41.996 99.4885 41.932C99.9365 41.804 100.353 41.836 100.737 42.028C100.993 41.964 101.121 42.028 101.121 42.22C101.121 42.348 101.153 42.476 101.217 42.604L101.409 43.084V42.988C101.409 43.116 101.473 43.244 101.601 43.372C101.729 43.5 101.825 43.564 101.889 43.564C101.761 43.692 101.761 43.82 101.889 43.948C102.017 44.012 102.145 44.108 102.273 44.236C102.337 44.364 102.529 44.428 102.849 44.428C103.169 44.108 103.297 43.756 103.233 43.372C103.169 42.988 103.169 42.604 103.233 42.22C103.105 42.092 103.073 41.964 103.137 41.836C103.265 41.644 103.361 41.484 103.424 41.356C103.553 41.42 103.681 41.388 103.809 41.26C103.937 41.068 104.065 40.94 104.193 40.876H104.385V40.972C104.769 40.78 105.153 40.716 105.537 40.78C105.985 40.78 106.433 40.748 106.881 40.684C107.265 40.812 107.681 40.844 108.129 40.78C108.641 40.652 109.121 40.652 109.569 40.78L109.761 40.684C110.273 40.748 110.721 40.908 111.105 41.164C111.489 41.356 111.873 41.484 112.257 41.548V41.644C112.321 41.772 112.417 41.804 112.545 41.74C112.737 41.676 112.897 41.676 113.025 41.74C113.665 41.868 114.337 41.9 115.041 41.836C115.745 41.708 116.353 41.996 116.865 42.7C116.993 42.828 117.057 43.02 117.057 43.276C117.121 43.468 117.217 43.66 117.345 43.852L117.249 43.948C117.633 45.996 117.985 47.98 118.305 49.9C118.625 51.82 119.041 53.708 119.553 55.564C119.681 55.5 119.713 55.532 119.649 55.66C119.649 55.788 119.713 55.884 119.841 55.948C119.969 56.14 120.161 56.204 120.417 56.14C120.673 56.076 120.865 55.98 120.993 55.852C122.529 53.804 124.033 51.756 125.505 49.708C126.977 47.66 128.481 45.612 130.017 43.564C130.337 42.988 130.785 42.412 131.361 41.836C132.001 41.26 132.673 40.844 133.377 40.588C134.145 40.46 134.945 40.428 135.777 40.492C136.673 40.492 137.473 40.46 138.177 40.396C138.433 40.46 138.689 40.46 138.945 40.396C139.265 40.332 139.553 40.332 139.809 40.396V40.3C140.385 40.3 140.865 40.556 141.249 41.068ZM103.521 41.548L103.329 41.836L103.521 41.548Z" fill="white"/>
</svg>
