<svg width="32" height="32" viewBox="0 0 32 32" fill="none" xmlns="http://www.w3.org/2000/svg">
<rect width="32" height="32" rx="16" fill="black"/>
<path d="M16 11.8462C15.1784 11.8462 14.3753 12.0898 13.6922 12.5462C13.0092 13.0026 12.4767 13.6514 12.1623 14.4104C11.848 15.1694 11.7657 16.0046 11.926 16.8104C12.0862 17.6161 12.4819 18.3563 13.0628 18.9372C13.6437 19.5181 14.3839 19.9138 15.1896 20.074C15.9954 20.2343 16.8306 20.152 17.5896 19.8377C18.3486 19.5233 18.9974 18.9909 19.4538 18.3078C19.9102 17.6247 20.1538 16.8216 20.1538 16C20.1527 14.8987 19.7147 13.8428 18.9359 13.0641C18.1572 12.2853 17.1013 11.8473 16 11.8462ZM16 18.7692C15.4523 18.7692 14.9169 18.6068 14.4615 18.3025C14.0061 17.9982 13.6512 17.5657 13.4416 17.0597C13.232 16.5537 13.1771 15.9969 13.284 15.4598C13.3908 14.9226 13.6546 14.4291 14.0419 14.0419C14.4291 13.6546 14.9226 13.3908 15.4598 13.284C15.9969 13.1771 16.5537 13.232 17.0597 13.4416C17.5657 13.6512 17.9982 14.0061 18.3025 14.4615C18.6068 14.9169 18.7692 15.4523 18.7692 16C18.7692 16.7344 18.4775 17.4388 17.9581 17.9581C17.4388 18.4775 16.7344 18.7692 16 18.7692ZM20.1538 7H11.8462C10.5613 7.00137 9.32946 7.51239 8.42092 8.42092C7.51239 9.32946 7.00137 10.5613 7 11.8462V20.1538C7.00137 21.4387 7.51239 22.6705 8.42092 23.5791C9.32946 24.4876 10.5613 24.9986 11.8462 25H20.1538C21.4387 24.9986 22.6705 24.4876 23.5791 23.5791C24.4876 22.6705 24.9986 21.4387 25 20.1538V11.8462C24.9986 10.5613 24.4876 9.32946 23.5791 8.42092C22.6705 7.51239 21.4387 7.00137 20.1538 7ZM23.6154 20.1538C23.6154 21.0719 23.2507 21.9524 22.6015 22.6015C21.9524 23.2507 21.0719 23.6154 20.1538 23.6154H11.8462C10.9281 23.6154 10.0476 23.2507 9.39848 22.6015C8.74931 21.9524 8.38462 21.0719 8.38462 20.1538V11.8462C8.38462 10.9281 8.74931 10.0476 9.39848 9.39848C10.0476 8.74931 10.9281 8.38462 11.8462 8.38462H20.1538C21.0719 8.38462 21.9524 8.74931 22.6015 9.39848C23.2507 10.0476 23.6154 10.9281 23.6154 11.8462V20.1538ZM21.5385 11.5C21.5385 11.7054 21.4776 11.9062 21.3634 12.0769C21.2493 12.2477 21.0872 12.3808 20.8974 12.4594C20.7076 12.538 20.4988 12.5586 20.2974 12.5185C20.096 12.4784 19.9109 12.3795 19.7657 12.2343C19.6205 12.0891 19.5216 11.904 19.4815 11.7026C19.4414 11.5012 19.462 11.2924 19.5406 11.1026C19.6192 10.9128 19.7523 10.7507 19.9231 10.6366C20.0938 10.5224 20.2946 10.4615 20.5 10.4615C20.7754 10.4615 21.0396 10.5709 21.2343 10.7657C21.4291 10.9604 21.5385 11.2246 21.5385 11.5Z" fill="white"/>
</svg>
