<svg width="50" height="50" viewBox="0 0 50 50" fill="none" xmlns="http://www.w3.org/2000/svg">
<path d="M45.7031 15.6484C45.2631 15.1499 44.7221 14.7506 44.116 14.4771C43.5098 14.2037 42.8525 14.0624 42.1875 14.0625H31.25V10.9375C31.25 8.8655 30.4269 6.87836 28.9618 5.41323C27.4966 3.9481 25.5095 3.125 23.4375 3.125C23.1472 3.12479 22.8626 3.20545 22.6156 3.35793C22.3686 3.51041 22.169 3.72869 22.0391 3.98828L14.6602 18.75H6.25C5.4212 18.75 4.62634 19.0792 4.04029 19.6653C3.45424 20.2513 3.125 21.0462 3.125 21.875V39.0625C3.125 39.8913 3.45424 40.6862 4.04029 41.2722C4.62634 41.8583 5.4212 42.1875 6.25 42.1875H39.8438C40.9858 42.1879 42.0886 41.7714 42.9452 41.0162C43.8019 40.2609 44.3533 39.219 44.4961 38.0859L46.8398 19.3359C46.9229 18.6758 46.8645 18.0056 46.6685 17.3698C46.4725 16.734 46.1434 16.1472 45.7031 15.6484ZM6.25 21.875H14.0625V39.0625H6.25V21.875ZM43.7383 18.9453L41.3945 37.6953C41.3469 38.073 41.1631 38.4203 40.8776 38.6721C40.592 38.9238 40.2244 39.0626 39.8438 39.0625H17.1875V20.6816L24.3574 6.33984C25.4201 6.55253 26.3762 7.12687 27.0632 7.96512C27.7501 8.80338 28.1253 9.85375 28.125 10.9375V15.625C28.125 16.0394 28.2896 16.4368 28.5826 16.7299C28.8757 17.0229 29.2731 17.1875 29.6875 17.1875H42.1875C42.4092 17.1874 42.6284 17.2345 42.8305 17.3257C43.0327 17.4169 43.213 17.55 43.3597 17.7163C43.5064 17.8826 43.616 18.0782 43.6813 18.2901C43.7466 18.502 43.766 18.7253 43.7383 18.9453Z" fill="black"/>
</svg>
