<svg width="32" height="32" viewBox="0 0 32 32" fill="none" xmlns="http://www.w3.org/2000/svg">
<rect width="32" height="32" rx="16" fill="black"/>
<path d="M24.3077 11.6667C23.2064 11.6656 22.1505 11.2438 21.3717 10.4939C20.593 9.74397 20.155 8.72719 20.1538 7.66667C20.1538 7.48986 20.0809 7.32029 19.9511 7.19526C19.8212 7.07024 19.6452 7 19.4615 7H16C15.8164 7 15.6403 7.07024 15.5105 7.19526C15.3806 7.32029 15.3077 7.48986 15.3077 7.66667V18.6667C15.3076 18.9649 15.2243 19.2576 15.0666 19.5143C14.909 19.771 14.6827 19.9823 14.4113 20.1261C14.14 20.2699 13.8336 20.3409 13.524 20.3318C13.2145 20.3227 12.9131 20.2337 12.6514 20.0743C12.3897 19.9148 12.1772 19.6906 12.0361 19.4251C11.8951 19.1596 11.8306 18.8625 11.8493 18.5648C11.8681 18.2671 11.9695 17.9797 12.1429 17.7327C12.3164 17.4856 12.5555 17.2878 12.8353 17.16C12.9537 17.1059 13.0537 17.0206 13.1237 16.9139C13.1937 16.8073 13.2308 16.6837 13.2308 16.5575V13C13.2308 12.9025 13.2087 12.8063 13.1659 12.718C13.1231 12.6296 13.0608 12.5514 12.9832 12.4888C12.9057 12.4262 12.8148 12.3807 12.717 12.3556C12.6193 12.3305 12.5169 12.3263 12.4173 12.3433C9.32875 12.8733 7 15.5917 7 18.6667C7 20.3464 7.69292 21.9573 8.92634 23.145C10.1597 24.3327 11.8326 25 13.5769 25C15.3212 25 16.9941 24.3327 18.2275 23.145C19.4609 21.9573 20.1538 20.3464 20.1538 18.6667V15.3575C21.436 16.0017 22.8615 16.3366 24.3077 16.3333C24.4913 16.3333 24.6674 16.2631 24.7972 16.1381C24.9271 16.013 25 15.8435 25 15.6667V12.3333C25 12.1565 24.9271 11.987 24.7972 11.8619C24.6674 11.7369 24.4913 11.6667 24.3077 11.6667ZM23.6154 14.97C22.2625 14.8546 20.967 14.3896 19.8657 13.6242C19.7622 13.5525 19.6401 13.5097 19.513 13.5006C19.3858 13.4915 19.2585 13.5164 19.1451 13.5725C19.0317 13.6286 18.9366 13.7138 18.8703 13.8186C18.804 13.9235 18.769 14.0439 18.7692 14.1667V18.6667C18.7692 19.9927 18.2222 21.2645 17.2484 22.2022C16.2747 23.1399 14.954 23.6667 13.5769 23.6667C12.1998 23.6667 10.8792 23.1399 9.90541 22.2022C8.93166 21.2645 8.38462 19.9927 8.38462 18.6667C8.38462 16.5083 9.82462 14.5725 11.8462 13.8667V16.1725C11.3986 16.4604 11.0362 16.8551 10.7942 17.3181C10.5522 17.7811 10.4389 18.2965 10.4653 18.8142C10.4917 19.3318 10.657 19.8341 10.9449 20.272C11.2329 20.7099 11.6337 21.0684 12.1084 21.3128C12.5831 21.5571 13.1155 21.6788 13.6535 21.666C14.1916 21.6533 14.7171 21.5065 15.1787 21.24C15.6404 20.9735 16.0224 20.5964 16.2877 20.1454C16.553 19.6944 16.6924 19.185 16.6923 18.6667V8.33333H18.8125C18.9682 9.50757 19.5243 10.5988 20.3935 11.4359C21.2628 12.2729 22.396 12.8084 23.6154 12.9583V14.97Z" fill="white"/>
</svg>
