<svg width="32" height="32" viewBox="0 0 32 32" fill="none" xmlns="http://www.w3.org/2000/svg">
<rect width="32" height="32" rx="16" fill="black"/>
<path d="M19.2536 15.3945L14.9679 12.4855C14.8603 12.4124 14.7352 12.3704 14.606 12.364C14.4768 12.3576 14.3483 12.3871 14.2343 12.4493C14.1203 12.5114 14.0249 12.604 13.9585 12.717C13.8921 12.83 13.8571 12.9592 13.8571 13.0909V18.9091C13.8571 19.0408 13.8921 19.17 13.9585 19.283C14.0249 19.3961 14.1203 19.4886 14.2343 19.5507C14.3483 19.6129 14.4768 19.6424 14.606 19.636C14.7352 19.6296 14.8603 19.5876 14.9679 19.5145L19.2536 16.6055C19.3515 16.5391 19.4319 16.4491 19.4875 16.3434C19.543 16.2378 19.5721 16.1198 19.5721 16C19.5721 15.8802 19.543 15.7622 19.4875 15.6566C19.4319 15.5509 19.3515 15.4609 19.2536 15.3945ZM15.2857 17.55V14.4545L17.5696 16L15.2857 17.55ZM25.4938 10.6836C25.4096 10.3485 25.2484 10.0385 25.0235 9.7793C24.7985 9.52008 24.5163 9.31902 24.2 9.19273C21.1393 7.98909 16.2679 8 16 8C15.7321 8 10.8607 7.98909 7.8 9.19273C7.48372 9.31902 7.20146 9.52008 6.97651 9.7793C6.75157 10.0385 6.59038 10.3485 6.50625 10.6836C6.275 11.5909 6 13.2491 6 16C6 18.7509 6.275 20.4091 6.50625 21.3164C6.59025 21.6517 6.75138 21.9618 6.97634 22.2212C7.20129 22.4806 7.48361 22.6818 7.8 22.8082C10.7321 23.96 15.3214 24 15.9411 24H16.0589C16.6786 24 21.2705 23.96 24.2 22.8082C24.5164 22.6818 24.7987 22.4806 25.0237 22.2212C25.2486 21.9618 25.4097 21.6517 25.4938 21.3164C25.725 20.4073 26 18.7509 26 16C26 13.2491 25.725 11.5909 25.4938 10.6836ZM24.1107 20.9564C24.0835 21.0679 24.0307 21.1713 23.9567 21.258C23.8827 21.3448 23.7895 21.4124 23.6848 21.4555C20.8589 22.5664 16.0527 22.5464 16.0063 22.5464H16C15.9518 22.5464 11.1491 22.5645 8.32143 21.4555C8.21676 21.4124 8.12359 21.3448 8.04956 21.258C7.97553 21.1713 7.92275 21.0679 7.89554 20.9564C7.67857 20.1264 7.42857 18.5973 7.42857 16C7.42857 13.4027 7.67857 11.8736 7.88929 11.0482C7.91599 10.936 7.96855 10.8319 8.0426 10.7445C8.11666 10.657 8.2101 10.5888 8.31518 10.5455C11.0402 9.47364 15.6062 9.45455 15.9804 9.45455H16.0045C16.0527 9.45455 20.8598 9.43819 23.683 10.5455C23.7877 10.5885 23.8809 10.6561 23.9549 10.7429C24.0289 10.8296 24.0817 10.933 24.1089 11.0445C24.3214 11.8736 24.5714 13.4027 24.5714 16C24.5714 18.5973 24.3214 20.1264 24.1107 20.9518V20.9564Z" fill="white"/>
</svg>
