<svg width="62" height="62" viewBox="0 0 62 62" fill="none" xmlns="http://www.w3.org/2000/svg">
<g clip-path="url(#clip0_48_26)">
<path d="M31 0.76709C13.8725 0.76709 0 14.6473 0 31.7671C0 45.4665 8.8815 57.0838 21.1962 61.1783C22.7462 61.4702 23.3146 60.5118 23.3146 59.6878C23.3146 58.9515 23.2887 57.0011 23.2758 54.4178C14.6527 56.2881 12.834 50.2586 12.834 50.2586C11.4235 46.6807 9.38525 45.7248 9.38525 45.7248C6.57717 43.8028 9.60225 43.8416 9.60225 43.8416C12.7152 44.0586 14.3504 47.0346 14.3504 47.0346C17.1146 51.775 21.607 50.4058 23.3792 49.6128C23.6582 47.6081 24.4564 46.2415 25.3425 45.4665C18.4579 44.6915 11.222 42.0255 11.222 30.1473C11.222 26.7632 12.4232 23.999 14.4124 21.829C14.0637 21.0463 13.0174 17.8946 14.6837 13.6243C14.6837 13.6243 17.2799 12.7925 23.2087 16.8018C25.6887 16.1121 28.3237 15.7711 30.9587 15.7556C33.5937 15.7711 36.2287 16.1121 38.7087 16.8018C44.5987 12.7925 47.1949 13.6243 47.1949 13.6243C48.8612 17.8946 47.8149 21.0463 47.5049 21.829C49.4812 23.999 50.6824 26.7632 50.6824 30.1473C50.6824 42.0565 43.4362 44.6786 36.5387 45.4407C37.6237 46.3707 38.6312 48.272 38.6312 51.1757C38.6312 55.3245 38.5924 58.657 38.5924 59.6645C38.5924 60.4783 39.1349 61.447 40.7237 61.137C53.1262 57.0708 62 45.4458 62 31.7671C62 14.6473 48.1197 0.76709 31 0.76709Z" fill="black"/>
</g>
<defs>
<clipPath id="clip0_48_26">
<rect width="62" height="62" fill="white"/>
</clipPath>
</defs>
</svg>
